<svg width="1280" height="720" xmlns="http://www.w3.org/2000/svg" xmlns:xlink="http://www.w3.org/1999/xlink" overflow="hidden"><g><rect x="0" y="0" width="1280" height="720" fill="#FFFFFF"/><path d="M316 318C304.402 318 295 308.598 295 297L295 297C295 285.402 304.402 276 316 276L685 276C696.598 276 706 285.402 706 297L706 297C706 308.598 696.598 318 685 318Z" stroke="#FF0000" stroke-width="2" stroke-miterlimit="8" fill="#FF0000" fill-rule="evenodd"/><path d="M476 298 500.5 222 525 298Z" stroke="#FF0000" stroke-width="2" stroke-miterlimit="8" fill="#FF0000" fill-rule="evenodd"/><path d="M525 298 500.5 374 476 298Z" stroke="#FF0000" stroke-width="2" stroke-miterlimit="8" fill="#FF0000" fill-rule="evenodd"/><path d="M0 177.398 6.33186 0 12.6637 177.398Z" stroke="#FF0000" stroke-width="2" stroke-miterlimit="8" fill="#FF0000" fill-rule="evenodd" transform="matrix(0.602823 -0.797875 -0.797875 -0.602823 629.938 406.198)"/><path d="M0 77.9756 8.14184 0 16.2837 77.9756Z" stroke="#FF0000" stroke-width="2" stroke-miterlimit="8" fill="#FF0000" fill-rule="evenodd" transform="matrix(0.790752 0.612137 0.612137 -0.790752 439.708 356.942)"/><path d="M0 89.6929 10.3037 0 20.6073 89.6929Z" stroke="#FF0000" stroke-width="2" stroke-miterlimit="8" fill="#FF0000" fill-rule="evenodd" transform="matrix(-0.763758 -0.645503 -0.645503 0.763758 573.694 226.477)"/><path d="M0 177.398 6.33186 0 12.6637 177.398Z" stroke="#FF0000" stroke-width="2" stroke-miterlimit="8" fill="#FF0000" fill-rule="evenodd" transform="matrix(-0.602823 0.797875 0.797875 0.602823 358.517 179.79)"/></g></svg>