<svg width="1280" height="720" xmlns="http://www.w3.org/2000/svg" xmlns:xlink="http://www.w3.org/1999/xlink" overflow="hidden" viewBox="268 57 465 483">
  <g>
    <rect x="0" y="0" width="1280" height="720" fill="#FFFFFF" />
    <path d="M664.379 315.583 461.749 79.7468 701.949 277.185Z" stroke="#FF0000" stroke-width="2" stroke-miterlimit="8" fill="#FF0000" fill-rule="evenodd" />
    <path d="M301.833 318C298.059 318 295 314.941 295 311.167L295 283.833C295 280.059 298.059 277 301.833 277L699.167 277C702.941 277 706 280.059 706 283.833L706 311.167C706 314.941 702.941 318 699.167 318Z" stroke="#FF0000" stroke-width="2" stroke-miterlimit="8" fill="#FF0000" fill-rule="evenodd" />
    <path d="M476 298 500.5 222 525 298Z" stroke="#FF0000" stroke-width="2" stroke-miterlimit="8" fill="#FF0000" fill-rule="evenodd" />
    <path d="M336.609 279.574 539.239 515.411 299.039 317.973Z" stroke="#FF0000" stroke-width="2" stroke-miterlimit="8" fill="#FF0000" fill-rule="evenodd" />
    <path d="M525 298 500.5 374 476 298Z" stroke="#FF0000" stroke-width="2" stroke-miterlimit="8" fill="#FF0000" fill-rule="evenodd" />
  </g>
</svg>